# AST/ASF file generated using VICON BodyLanguage
# -----------------------------------------------
:version 1.10
:name VICON
:units
  mass 1.0
  length 0.45
  angle deg
:documentation
   .ast/.asf automatically generated from VICON data using
   VICON BodyBuilder and BodyLanguage model FoxedUp or BRILLIANT.MOD
:root
   order TX TY TZ RX RY RZ
   axis XYZ
   position 0 0 0  
   orientation 0 0 0 
:bonedata
  begin
     id 1 
     name lhipjoint
     direction 0.603808 -0.713975 0.35448 
     length 2.2025 
     axis 0 0 0  XYZ
  end
  begin
     id 2 
     name lfemur
     direction 0.34202 -0.939693 0  
     length 6.55877  
     axis 0 0 20  XYZ
    dof rx ry rz
    limits (-160.0 20.0)
           (-70.0 70.0)
           (-60.0 70.0)
  end
  begin
     id 3 
     name ltibia
     direction 0.34202 -0.939693 0   
     length 6.80302   
     axis 0 0 20   XYZ
    dof rx
    limits (-10.0 170.0)
  end
  begin
     id 4 
     name lfoot
     direction 0.091848 -0.25235 0.963267   
     length 2.03446   
     axis -90 7.62852e-016 20   XYZ
    dof rx rz
    limits (-45.0 90.0)
           (-70.0 20.0)
  end
  begin
     id 5 
     name ltoes
     direction 1.53608e-011 -4.21925e-011 1   
     length 1.02033   
     axis -90 7.62852e-016 20   XYZ
    dof rx
    limits (-90.0 20.0)
  end
  begin
     id 6 
     name rhipjoint
     direction -0.587285 -0.724947 0.359928   
     length 2.16916  
     axis 0 0 0  XYZ 
  end
  begin
     id 7 
     name rfemur
     direction -0.34202 -0.939693 0   
     length 6.43173   
     axis 0 0 -20   XYZ
    dof rx ry rz
    limits (-160.0 20.0)
           (-70.0 70.0)
           (-70.0 60.0)
  end
  begin
     id 8 
     name rtibia
     direction -0.34202 -0.939693 0   
     length 6.70662   
     axis 0 0 -20   XYZ
    dof rx
    limits (-10.0 170.0)
 end
 begin
     id 9 
     name rfoot
     direction -0.11854 -0.325686 0.938018   
     length 2.0773  
     axis -90 -7.62852e-016 -20   XYZ
    dof rx rz
    limits (-45.0 90.0)
           (-20.0 70.0)
  end
  begin
     id 10 
     name rtoes
     direction -1.53547e-011 -4.21838e-011 1   
     length 1.03267   
     axis -90 -7.62852e-016 -20   XYZ
    dof rx
    limits (-90.0 20.0)
  end
  begin
     id 11 
     name lowerback
     direction -0.0286554 0.999539 0.0100613   
     length 2.08751   
     axis 0 0 0   XYZ
    dof rx ry rz
    limits (-20.0 45.0)
           (-30.0 30.0)
           (-30.0 30.0)
  end
  begin
     id 12 
     name upperback
     direction 0.0227093 0.999705 -0.00860929   
     length 2.08517   
     axis 0 0 0   XYZ
    dof rx ry rz
    limits (-20.0 45.0)
           (-30.0 30.0)
           (-30.0 30.0)
  end
  begin
     id 13 
     name thorax
     direction 0.0351627 0.999285 -0.013892   
     length 2.08412   
     axis 0 0 0   XYZ
    dof rx ry rz
    limits (-20.0 45.0)
           (-30.0 30.0)
           (-30.0 30.0)
  end
  begin
     id 14 
     name lowerneck
     direction -0.0696283 0.997344 0.0213922   
     length 1.44164   
     axis 0 0 0   XYZ
    dof rx ry rz
    limits (-20.0 45.0)
           (-30.0 30.0)
           (-30.0 30.0)
  end
  begin
     id 15 
     name upperneck
     direction 0.0531 0.990412 -0.127531   
     length 1.45022   
     axis 0 0 0   XYZ
    dof rx ry rz
    limits (-20.0 45.0)
           (-30.0 30.0)
           (-30.0 30.0)
  end
  begin
     id 16
     name head
     direction 0.0188154 0.998548 -0.0504727  
     length 1.45845  
     axis 0 0 0   XYZ
    dof rx ry rz
    limits (-20.0 45.0)
           (-30.0 30.0)
           (-30.0 30.0)
  end
  begin
     id 17 
     name lclavicle
     direction 0.961559 0.260051 0.088188  
     length 2.86057  
     axis 0 0 0   XYZ
    dof ry rz
    limits (-20.0 10.0)
           (0.0 20.0)
  end
  begin
     id 18 
     name lhumerus
     direction 1 -4.48959e-011 2.88185e-027   
     length 4.36901   
     axis 180 -30 -90   XYZ
    dof rx ry rz
    limits (-60.0 90.0)
           (-90.0 90.0)
           (-90.0 90.0)
  end
  begin
     id 19
     name lradius
     direction 1 -4.48965e-011 -3.92618e-028   
     length 3.21737   
     axis 180 -30 -90   XYZ
    dof rx
    limits (-10.0 170.0)
  end
  begin
     id 20
     name lwrist
     direction 1 -4.49037e-011 2.57246e-027   
     length 1.60869   
     axis -1.61769e-015 90 90   XYZ
    dof ry
    limits (-180.0 0.0)
 end
  begin
     id 21 
     name lhand
     direction 1 -4.48807e-011 5.12958e-027   
     length 0.564313   
     axis -3.27988e-015 90 90   XYZ
    dof rx rz
    limits (-90.0 90.0)
           (-45.0 45.0)
  end
  begin
     id 22 
     name lfingers
     direction 1 -4.48879e-011 1.02687e-026   
     length 0.454963   
     axis -6.5598e-015 90 90   XYZ
    dof rx
    limits (0.0 90.0)
  end
  begin
     id 23
     name lthumb
     direction 0.707107 -6.3475e-011 0.707107   
     length 0.653239   
     axis -90 45 2.19363e-014   XYZ
    dof rx rz
    limits (-45.0 45.0)
           (-45.0 45.0)
  end
  begin
     id 24 
     name rclavicle
     direction -0.954677 0.253915 0.155304   
     length 3.11497  
     axis 0 0 0   XYZ 
    dof ry rz
    limits (-10.0 20.0)
           (-20.0 0.0)
  end
  begin
     id 25 
     name rhumerus
     direction -1 -4.48958e-011 -8.20169e-028  
     length 4.34118   
     axis 180 30 90   XYZ
    dof rx ry rz
    limits (-90.0 60.0)
           (-90.0 90.0)
           (-90.0 90.0)
  end
  begin
     id 26 
     name rradius
     direction -1 -4.48978e-011 1.5676e-027   
     length 3.09531   
     axis 180 30 90   XYZ
    dof rx
    limits (-10.0 170.0)
  end
  begin
     id 27 
     name rwrist
     direction -1 -4.49001e-011 2.57123e-027   
     length 1.54765   
     axis -1.61769e-015 -90 -90   XYZ
    dof ry
    limits (-180.0 0.0)
  end
  begin
     id 28
     name rhand
     direction -1 -4.48847e-011 5.13225e-027   
     length 0.597446   
     axis -3.27988e-015 -90 -90   XYZ
    dof rx rz
    limits (-90.0 90.0)
           (-45.0 45.0)
  end
  begin
     id 29
     name rfingers
     direction -1 -4.49094e-011 1.02974e-026   
     length 0.481677   
     axis -6.5598e-015 -90 -90   XYZ
    dof rx
    limits (0.0 90.0)
  end
  begin
     id 30
     name rthumb
     direction -0.707107 -6.34859e-011 0.707107   
     length 0.691594   
     axis -90 -45 -2.19363e-014   XYZ
    dof rx rz
    limits (-45.0 45.0)
           (-45.0 45.0)
  end
:hierarchy
  begin
    root lhipjoint rhipjoint lowerback
    lhipjoint lfemur
    lfemur ltibia
    ltibia lfoot
    lfoot ltoes
    rhipjoint rfemur
    rfemur rtibia
    rtibia rfoot
    rfoot rtoes
    lowerback upperback
    upperback thorax
    thorax lowerneck lclavicle rclavicle
    lowerneck upperneck
    upperneck head
    lclavicle lhumerus
    lhumerus lradius
    lradius lwrist
    lwrist lhand lthumb
    lhand lfingers
    rclavicle rhumerus
    rhumerus rradius
    rradius rwrist
    rwrist rhand rthumb
    rhand rfingers
  end

#!OML:ASF I:\Acrobat_Osman\acrobat\cartwheel_test 2\Patient 1\Session 1\acrobat.ASF
:FULLY-SPECIFIED
:DEGREES
110
root 5.78392 15.1497 9.88465 24.2685 0.446432 2.62911
lowerback 12.4373 -0.666187 1.11787
upperback 6.15904 -0.67012 4.4664
thorax -0.473183 -0.376326 4.11419
lowerneck -7.24635 3.12646 0.406576
upperneck -8.36576 4.19759 0.0684491
head -1.38077 2.10068 -0.00894866
rclavicle -7.95139e-016 8.74653e-015
rhumerus -35.0007 7.46912 -65.6187
rradius 73.4948
rwrist -12.5251
rhand -23.2402 30.6766
rfingers 7.12502
rthumb 3.21113 0.721054
lclavicle -7.95139e-016 8.74653e-015
lhumerus 7.75469 -34.9966 70.1096
lradius 101.755
lwrist 30.0406
lhand -18.6981 40.7674
lfingers 7.12502
lthumb 7.59659 70.611
rfemur -66.3509 1.36899 1.60285
rtibia 49.4625
rfoot -3.95388 -12.7522
rtoes -32.0279
lfemur -59.7491 15.2165 -27.9673
ltibia 61.0716
lfoot -17.6859 -12.5908
ltoes -28.2048
111
root 5.67278 15.1149 9.94396 23.7145 1.97738 3.49248
lowerback 12.3452 -1.0346 0.779086
upperback 6.18415 -1.17866 4.97028
thorax -0.342222 -0.643298 4.90212
lowerneck -7.41646 3.13845 0.75893
upperneck -7.68275 4.16942 -0.254748
head -1.12367 2.08126 -0.153569
rclavicle 3.18055e-015 9.54166e-015
rhumerus -34.6066 8.1326 -64.3766
rradius 71.8404
rwrist -12.0045
rhand -22.2171 29.5287
rfingers 7.12502
rthumb 4.19916 -0.40966
lclavicle 3.18055e-015 9.54166e-015
lhumerus 10.2703 -38.4529 68.8887
lradius 103.307
lwrist 29.8479
lhand -17.5285 40.02
lfingers 7.12502
lthumb 8.72533 69.8196
rfemur -65.3063 0.315684 2.15228
rtibia 49.5037
rfoot -2.0966 -14.2395
rtoes -25.1977
lfemur -58.0896 15.7487 -27.5585
ltibia 61.2751
lfoot -18.8176 -14.8395
ltoes -23.0746
112
root 5.55297 15.0044 10.0067 22.6566 3.24408 4.48263
lowerback 12.3386 -1.26975 -0.073234
upperback 6.36217 -1.57215 5.44968
thorax -0.0753877 -0.870447 5.94739
lowerneck -7.98494 3.12168 0.814747
upperneck -6.71088 4.12109 -0.543916
head -0.724979 2.05843 -0.228693
rclavicle -6.36111e-015 7.95139e-015
rhumerus -34.2137 8.87226 -62.9833
rradius 70.3717
rwrist -11.3273
rhand -19.5639 26.4816
rfingers 7.12502
rthumb 6.76079 -3.39047
lclavicle -6.36111e-015 7.95139e-015
lhumerus 13.3582 -42.3658 67.1737
lradius 104.626
lwrist 28.2427
lhand -17.8671 38.4796
lfingers 7.12502
lthumb 8.39855 68.2926
rfemur -63.7808 -1.09746 3.09387
rtibia 50.4582
rfoot -2.29836 -12.3075
rtoes -24.2437
lfemur -55.7458 16.7336 -27.1218
ltibia 62.7664
lfoot -20.4072 -12.9365
ltoes -23.0201
113
root 5.47273 14.839 10.0393 22.2781 4.32209 5.48236
lowerback 11.5351 -1.49536 -0.561135
upperback 6.26052 -1.93058 5.75413
thorax 0.322139 -1.07074 6.5678
lowerneck -8.41285 3.08247 0.958951
upperneck -5.98858 4.03767 -1.02412
head -0.423422 2.01319 -0.383101
rclavicle -2.54444e-014 5.40694e-014
rhumerus -33.9794 9.72753 -61.5662
rradius 69.0322
rwrist -10.4977
rhand -18.2481 26.6877
rfingers 7.12502
rthumb 8.03084 -3.13967
lclavicle -2.54444e-014 5.40694e-014
lhumerus 16.9126 -45.7854 65.1626
lradius 106.423
lwrist 28.9132
lhand -17.7047 39.7131
lfingers 7.12502
lthumb 8.55529 69.5198
rfemur -63.4784 -3.52018 4.22637
rtibia 51.8773
rfoot -4.07806 -9.73302
rtoes -25.5655
lfemur -54.4741 17.1672 -26.7001
ltibia 65.4151
lfoot -21.0091 -7.456
ltoes -24.7212
114
root 5.39201 14.6892 10.0755 21.0865 4.96159 6.45467
lowerback 11.4714 -1.59058 -1.26172
upperback 6.29232 -2.12371 5.83194
thorax 0.447709 -1.18943 7.07424
lowerneck -8.55366 3.03819 1.29254
upperneck -5.71718 3.93843 -1.47852
head -0.301259 1.95502 -0.573145
rclavicle 1.74931e-014 1.43125e-014
rhumerus -33.7909 10.631 -60.4346
rradius 67.5106
rwrist -9.6504
rhand -19.8414 30.3404
rfingers 7.12502
rthumb 6.49293 0.459961
lclavicle 1.74931e-014 1.43125e-014
lhumerus 20.6828 -49.4066 62.5126
lradius 107.888
lwrist 28.117
lhand -17.7074 39.0721
lfingers 7.12502
lthumb 8.55276 68.8789
rfemur -63.0706 -5.73731 5.40976
rtibia 53.628
rfoot -6.31716 -8.77168
rtoes -21.7777
lfemur -51.8217 17.7355 -25.5962
ltibia 68.5507
lfoot -21.034 -4.25012
ltoes -23.8465
115
root 5.35486 14.5419 10.0787 20.2249 4.96739 7.30653
lowerback 11.4085 -1.60908 -1.45613
upperback 6.10331 -2.16402 5.61928
thorax 0.285552 -1.20287 6.96179
lowerneck -8.49276 3.05688 1.67452
upperneck -5.63788 3.92262 -1.9145
head -0.268434 1.93851 -0.770818
rclavicle 2.38542e-014 1.74931e-014
rhumerus -33.6314 11.1797 -59.5868
rradius 65.998
rwrist -8.65762
rhand -20.9198 32.4111
rfingers 7.12502
rthumb 5.45182 2.50119
lclavicle 2.38542e-014 1.74931e-014
lhumerus 24.4327 -52.4978 59.8207
lradius 109.213
lwrist 26.7734
lhand -16.394 38.6307
lfingers 7.12502
lthumb 9.82004 68.3817
rfemur -63.4863 -8.17997 6.76181
rtibia 55.4199
rfoot -8.01569 -7.57445
rtoes -17.8594
lfemur -49.2677 17.8496 -24.3727
ltibia 71.9267
lfoot -21.2954 -3.87378
ltoes -22.5338
116
root 5.34318 14.3691 10.0771 19.5618 4.24411 7.81327
lowerback 11.3441 -1.46183 -1.24233
upperback 5.66752 -1.94316 5.27294
thorax -0.1921 -1.06365 6.44715
lowerneck -8.11633 3.1547 2.14165
upperneck -5.39031 4.0137 -2.38364
head -0.229372 1.97553 -0.995668
rclavicle 2.22639e-014 -3.49861e-014
rhumerus -33.8262 11.2844 -58.94
rradius 64.7514
rwrist -7.74403
rhand -20.7403 32.2464
rfingers 7.12502
rthumb 5.62511 2.34107
lclavicle 2.22639e-014 -3.49861e-014
lhumerus 27.5222 -55.4952 57.709
lradius 110.588
lwrist 25.4125
lhand -15.233 38.0908
lfingers 7.12502
lthumb 10.94 67.7857
rfemur -64.5122 -9.64497 7.83945
rtibia 57.2663
rfoot -9.43812 -6.70372
rtoes -15.1792
lfemur -46.5928 18.0688 -22.8945
ltibia 75.3543
lfoot -21.5196 -4.08944
ltoes -22.005
117
root 5.35244 14.2265 10.0777 19.2457 2.9526 7.87598
lowerback 11.0015 -1.15597 -0.641656
upperback 5.09898 -1.47707 5.0367
thorax -0.685512 -0.799384 5.79456
lowerneck -7.63673 3.26887 2.38895
upperneck -5.14626 4.14924 -2.89683
head -0.210024 2.04011 -1.20013
rclavicle 2.06736e-014 -1.11319e-014
rhumerus -33.9857 11.1115 -57.9748
rradius 63.7193
rwrist -7.36471
rhand -20.8191 31.7009
rfingers 7.12502
rthumb 5.54899 1.79351
lclavicle 2.06736e-014 -1.11319e-014
lhumerus 30.1735 -58.4355 56.1462
lradius 112.103
lwrist 24.8107
lhand -15.3292 37.8262
lfingers 7.12502
lthumb 10.8472 67.526
rfemur -65.8643 -9.93169 8.61776
rtibia 58.7953
rfoot -10.0321 -6.0348
rtoes -14.3467
lfemur -43.8592 18.4526 -21.3297
ltibia 78.472
lfoot -21.7611 -4.45752
ltoes -21.5109
118
root 5.37909 14.1172 10.0687 19.0839 1.65856 7.66173
lowerback 10.6261 -0.91545 0.107836
upperback 4.64338 -1.08157 5.14034
thorax -1.01269 -0.582966 5.42613
lowerneck -7.14085 3.47253 2.33047
upperneck -5.27426 4.4189 -3.63703
head -0.305611 2.17968 -1.42751
rclavicle 2.70347e-014 0
rhumerus -33.392 10.7873 -56.404
rradius 62.7109
rwrist -7.5923
rhand -21.1509 31.1993
rfingers 7.12502
rthumb 5.22861 1.28376
lclavicle 2.70347e-014 0
lhumerus 32.3702 -60.7849 55.4381
lradius 113.48
lwrist 24.5767
lhand -15.7076 37.8153
lfingers 7.12502
lthumb 10.4823 67.5339
rfemur -67.1534 -9.692 9.19922
rtibia 59.9055
rfoot -9.84209 -5.43552
rtoes -14.9929
lfemur -41.0202 18.6152 -19.7558
ltibia 81.1283
lfoot -21.5972 -4.08066
ltoes -20.5552
119
root 5.42011 14.0397 10.0496 19.0121 0.542962 7.3109
lowerback 9.72866 -0.942318 0.963974
upperback 4.66717 -1.07376 5.36023
thorax -0.509799 -0.576956 5.14487
lowerneck -6.85543 3.91314 2.52919
upperneck -5.79774 4.97108 -4.48567
head -0.469965 2.45992 -1.73258
rclavicle -7.95139e-015 4.13472e-014
rhumerus -31.4838 10.1137 -54.8895
rradius 61.5292
rwrist -8.53468
rhand -21.9516 30.7751
rfingers 7.12502
rthumb 4.4555 0.842009
lclavicle -7.95139e-015 4.13472e-014
lhumerus 33.8853 -62.157 55.4129
lradius 114.478
lwrist 24.0601
lhand -14.8587 37.4265
lfingers 7.12502
lthumb 11.301 67.1021
rfemur -68.0785 -9.2275 9.646
rtibia 60.4416
rfoot -9.89761 -5.09819
rtoes -15.0078
lfemur -37.9755 18.613 -18.3192
ltibia 83.1017
lfoot -20.8234 -3.16817
ltoes -18.602
